# xmcd
# 
# Track frame offsets:
#     150
#     23877
#     48522
#     70843
#     77179
#     98260
#     115990
#     145233
# 
# Disc length: 2470
# 
# Revision: 1
# Processed by: cddbd v1.5.2PL0 Copyright (c) Steve Scherf et al.
# Submitted via: fre:ac v1.0.17
# 
DISCID=6309a408
DTITLE=Limp Bizkit - The Unquestionable Truth (Part1)
DYEAR=2005
DGENRE=Nu Metal
TTITLE0=The Propaganda
TTITLE1=The Truth
TTITLE2=The Priest
TTITLE3=The Key
TTITLE4=The Channel
TTITLE5=The Story
TTITLE6=The Surrender
TTITLE7=Datatrack
EXTD=Flip/Geffen Records
EXTT0=
EXTT1=
EXTT2=
EXTT3=
EXTT4=
EXTT5=
EXTT6=
EXTT7=
PLAYORDER=
